<?xml version="1.0" encoding="utf-8"?>
<!-- Generator: Adobe Illustrator 22.1.0, SVG Export Plug-In . SVG Version: 6.00 Build 0)  -->
<svg version="1.1" id="Layer_1" xmlns="http://www.w3.org/2000/svg" xmlns:xlink="http://www.w3.org/1999/xlink" x="0px" y="0px"
	 viewBox="0 0 47.5 52" style="enable-background:new 0 0 47.5 52;" xml:space="preserve">
<style type="text/css">
	.st0{fill:#86828E;}
</style>
<g>
	<path class="st0" d="M28,19.9c-5,0.4-10.2,0.4-15.2,0c-0.6,0-1.2,0.2-1.5,0.7c-0.4,0.6-0.4,1.4-0.1,2.1c0.3,0.6,0.9,1,1.6,1
		c2.4,0.2,4.9,0.2,7.3,0.2c2.7,0,5.4-0.1,8-0.3c0.7-0.1,1.3-0.4,1.6-1.1c0.3-0.7,0.3-1.5-0.1-2.1C29.2,20.1,28.6,19.8,28,19.9z"/>
	<path class="st0" d="M28,11.7c-5.1,0.4-10.2,0.4-15.2,0c-1-0.1-1.8,0.6-1.9,1.7c-0.1,1,0.5,2.1,1.8,2.2c2.4,0.2,4.9,0.2,7.3,0.2
		c2.7,0,5.4-0.1,8-0.3c0.7-0.1,1.3-0.4,1.6-1.1c0.3-0.7,0.3-1.5-0.1-2.1C29.2,12,28.6,11.7,28,11.7z"/>
	<path class="st0" d="M45.3,37c-0.6-3.9-2.9-7.7-6.2-9.9c0-7.8-0.2-15.6-0.7-23.3c0-0.1-0.1-0.2-0.1-0.3c0-0.4-0.1-0.9-0.3-1.2
		c-0.3-0.5-0.9-0.8-1.6-0.7C25.7,2.5,14.8,2.6,4,1.8C3.3,1.7,2.8,2,2.4,2.5C2.1,2.9,2,3.5,2.1,4c0,0.1-0.1,0.2-0.1,0.3
		C2.2,12.1,2.2,20,2.2,27.7c0,5.6,0,11.1,0,16.7c0,0.9,0.6,1.5,1.3,1.8c0.2,0.1,0.5,0.2,0.9,0.3C9.6,46.8,14.9,47,20.2,47
		c1.3,0,2.6,0,3.9-0.1c0.2,0.2,0.4,0.5,0.7,0.7c2.9,2.7,8.1,3.1,11.8,2.2C42.4,48.5,46.1,43,45.3,37z M25.2,28.3
		c-0.3-0.1-0.7-0.1-1.2-0.1c-3.4,0.3-6.8,0.3-10.6,0c-1.6-0.1-2.4,0.7-2.5,1.6c-0.1,1,0.7,2.1,2.4,2.2c1.7,0.2,3.5,0.2,5.3,0.2
		c1.1,0,2.1,0,3.2-0.1c-0.7,1.3-1.3,2.6-1.5,4.1c-0.2,1.1-0.2,2.3,0,3.5c0.2,1.2,0.6,2.3,1.1,3.4c-5.1,0-10.3-0.1-15.4-0.5
		c0-5,0-10,0-14.9c0-7.2,0-14.6-0.1-22c4.5,0.3,9,0.5,13.6,0.5c5.1,0,10.1-0.2,15.2-0.6c0.4,6.6,0.6,13.3,0.6,19.9
		c-0.1,0-0.2-0.1-0.3-0.1C31.4,24.8,27.9,26.1,25.2,28.3z M38.6,39.6c-1.4-0.1-2.7-0.1-4.1-0.1c0,1.4,0.1,2.7,0.2,4.1
		c0.1,2.1-3.1,2.1-3.3,0c-0.1-1.4-0.1-2.7-0.2-4.1c-1.3,0-2.7,0.1-4,0.1c-2.1,0.1-2.1-3.1,0-3.3c1.3-0.1,2.7-0.1,4-0.1
		c0-1.3,0-2.7,0.1-4c0.1-2.1,3.4-2.1,3.3,0c-0.1,1.3-0.1,2.7-0.1,4c1.4,0,2.7,0,4.1,0.1C40.7,36.4,40.7,39.7,38.6,39.6z"/>
</g>
</svg>
