<?xml version="1.0" encoding="UTF-8"?>
<svg width="19px" height="22px" viewBox="0 0 19 22" version="1.1" xmlns="http://www.w3.org/2000/svg" xmlns:xlink="http://www.w3.org/1999/xlink">
    <!-- Generator: Sketch 52.5 (67469) - http://www.bohemiancoding.com/sketch -->
    <defs>
        <polygon id="path-1" points="0 0.01435 18.2954855 0.01435 18.2954855 7 0 7"></polygon>
    </defs>
    <g id="Campaign-Statistics" stroke="none" stroke-width="1" fill="none" fill-rule="evenodd">
        <g id="View-Stats" transform="translate(-22.000000, -143.000000)">
            <g id="Nav-Bar" transform="translate(0.000000, -1.000000)">
                <g id="Campaigns-Manager" transform="translate(22.000000, 144.000000)">
                    <g id="Group-3" transform="translate(0.000000, 14.500000)">
                        <mask id="mask-2" fill="#86828E">
                            <use xlink:href="#path-1"></use>
                        </mask>
                        <g id="Clip-2"></g>
                        <path d="M2.92683125,1.58935 C2.18108125,2.05951667 1.46145625,2.56701667 0.74064375,3.07568333 L0.11245625,3.51785 C0.04714375,3.56335 0.00676875,3.61118333 0.00083125,3.64851667 C-0.00629375,3.69168333 0.02576875,3.76168333 0.08276875,3.83518333 L2.45183125,6.85568333 C2.51714375,6.93968333 2.58601875,6.99451667 2.63351875,7.00035 C2.66083125,6.99801667 2.76295625,6.97001667 2.85439375,6.90001667 L3.61914375,6.31668333 C3.99914375,6.02501667 4.43258125,5.94335 4.90639375,6.07635 L5.19733125,6.15801667 C5.75545625,6.31318333 6.31358125,6.46951667 6.87883125,6.58618333 C7.54976875,6.72385 8.27533125,6.83935 9.03533125,6.92685 C9.91764375,7.03301667 10.7465188,6.79151667 11.4471438,6.54535 C13.4183938,5.85235 15.4430813,4.80585 17.8204563,3.25301667 C18.0199563,3.12235 18.1505813,2.97535 18.2206438,2.80385 C18.3500812,2.48535 18.3120813,2.22285 18.1030813,1.97785 C17.8667688,1.70251667 17.5805813,1.61735 17.2088938,1.71651667 C16.6828312,1.85418333 15.7565813,2.13651667 15.1687688,2.31968333 C14.8944563,2.40485 14.6462688,2.54601667 14.4289563,2.73968333 C14.1273313,3.01151667 13.8648938,3.19935 13.6487688,3.29735 C13.0740188,3.55868333 12.4303938,3.68118333 11.6228938,3.68235 L11.6110188,3.68235 C11.2143938,3.68235 10.8153938,3.65785 10.4175813,3.63335 L10.1682063,3.61818333 C9.83333125,3.59718333 9.49964375,3.57268333 9.16951875,3.52835 C8.91420625,3.49218333 8.69689375,3.36968333 8.55676875,3.18185 C8.41783125,2.99868333 8.36320625,2.76651667 8.40239375,2.52968333 C8.48195625,2.05718333 8.86670625,1.78185 9.38920625,1.81568333 L9.78464375,1.84601667 C10.3380188,1.88801667 10.8913938,1.93001667 11.4459563,1.95568333 C11.9981438,1.98018333 12.4351438,1.92301667 12.8103938,1.77251667 C13.3257688,1.56601667 13.5715813,1.23235 13.5418938,0.78085 C13.5193313,0.426183333 13.2687688,0.177683333 12.9338938,0.176516667 C12.7985188,0.180016667 12.6952063,0.17885 12.5776438,0.183516667 C12.3947688,0.18935 12.2130813,0.194016667 12.0325813,0.187016667 C11.1490813,0.152016667 10.2655813,0.111183333 9.38326875,0.07035 L8.17083125,0.01435 L8.15420625,0.01435 C7.81814375,0.01435 6.88358125,0.04585 6.41689375,0.135683333 C5.26383125,0.36085 4.12264375,0.835683333 2.92683125,1.58935" id="Fill-1" fill="#86828E" mask="url(#mask-2)"></path>
                    </g>
                    <path d="M12.6951319,7.97236479 L13.0976697,10.3578652 L10.9932338,9.23225461 L8.88765109,10.3578652 L9.28904214,7.97236479 L7.58714411,6.28278132 L9.94044246,5.93482287 L10.9932338,3.76416933 L12.0448784,5.93482287 L14.3970299,6.28278132 L12.6951319,7.97236479 Z M17.9350052,7.11764807 C17.5106775,4.06892489 15.2732092,1.14630745 12.1985538,0.59401099 C8.45070827,-0.0797206354 4.7338272,2.96199667 4.08816104,6.70079852 C3.97691838,7.34417135 3.96774372,8.00972946 4.07898638,8.68346108 C4.31408685,10.1068213 4.98498331,11.4122493 5.9150637,12.4923217 C6.3474192,12.3346895 6.7797747,12.2004102 7.21442385,12.1116691 C7.2304795,12.1081662 8.62158617,11.9201752 9.23055373,11.9960722 L10.2856388,12.0299339 C11.1377346,12.0708015 11.9886836,12.1116691 12.8407795,12.1478662 C12.9910144,12.1537044 13.1481303,12.1478662 13.3018057,12.1431956 C13.4279572,12.138525 13.5552555,12.1350221 13.6791133,12.1350221 C14.4429031,12.1396926 15.0289341,12.7130067 15.1069186,13.5 C17.1322231,12.1431956 18.2951103,9.70048057 17.9350052,7.11764807 Z" id="Fill-4" fill="#86828E"></path>
                </g>
            </g>
        </g>
    </g>
</svg>
