<?xml version="1.0" encoding="utf-8"?>
<!-- Generator: Adobe Illustrator 22.1.0, SVG Export Plug-In . SVG Version: 6.00 Build 0)  -->
<svg version="1.1" id="Layer_1" xmlns="http://www.w3.org/2000/svg" xmlns:xlink="http://www.w3.org/1999/xlink" x="0px" y="0px"
	 viewBox="0 0 44.9 44.7" style="enable-background:new 0 0 44.9 44.7;" xml:space="preserve">
<style type="text/css">
	.st0{fill:#fff;}
</style>
<g id="Layer_2_1_">
</g>
<g>
	<!-- <g>
		<path class="st0" d="M22.5,43C11.1,43,1.8,33.7,1.8,22.4S11.1,1.7,22.5,1.7S43.1,11,43.1,22.4S33.8,43,22.5,43z M22.5,3.6
			C12.1,3.6,3.7,12,3.7,22.4s8.4,18.7,18.7,18.7s18.7-8.4,18.7-18.7S32.8,3.6,22.5,3.6z"/>
	</g> -->
	<g id="Layer_1_1_">
		<g>
			<g>
				<path class="st0" d="M20.4,28.3c-0.6,0-1.1-0.1-1.5-0.4c0,0-3.8-2.8-3.8-4.4c0.1-0.8,0.5-1.3,1.1-1.7c0.7-0.3,1.4-0.2,2,0.3
					c0,0,0.1,0.1,0.1,0.1c0.2,0.3,0.5,0.6,0.8,0.9c0.2,0.2,0.9,1,1.2,0.8c0.5-0.7,1.1-1.5,1.6-2.2c0,0,0.3-0.3,0.6-0.7
					c0.7-0.9,2.6-3.3,2.9-3.6c0.5-0.9,1.7-1.2,2.7-0.8c0.9,0.6,1.2,1.7,0.7,2.6l-0.2,0.3c-0.2,0.3-1,1.2-3.1,3.9l-1.3,1.8
					c-0.1,0.1-0.5,0.5-0.7,0.8c-0.1,0.1-0.2,0.2-0.2,0.2s-1.1,1.2-1.4,1.5C21.3,28,20.9,28.2,20.4,28.3z"/>
			</g>
		</g>
	</g>
</g>
</svg>
