<?xml version="1.0" encoding="utf-8"?>
<!-- Generator: Adobe Illustrator 22.1.0, SVG Export Plug-In . SVG Version: 6.00 Build 0)  -->
<svg version="1.1" id="Layer_1" xmlns="http://www.w3.org/2000/svg" xmlns:xlink="http://www.w3.org/1999/xlink" x="0px" y="0px"
	 viewBox="0 0 44.9 44.7" style="enable-background:new 0 0 44.9 44.7;" xml:space="preserve">
<style type="text/css">
	.st0{fill:#86828E;}
	.st1{fill:#FFFFFF;}
</style>
<g id="Layer_2_1_">
</g>
<g>
	<circle class="st0" cx="22.5" cy="22.4" r="21.9"/>
	<g id="Layer_1_2_">
		<g>
			<path class="st1" d="M20.1,28.9c-0.6,0-1.2-0.1-1.7-0.4c0,0-4.2-3.1-4.2-4.9c0.1-0.8,0.5-1.5,1.3-1.9c0.7-0.3,1.6-0.2,2.2,0.3
				c0,0,0.1,0.1,0.1,0.1c0.3,0.4,0.6,0.7,0.9,1c0.2,0.2,1.1,1.2,1.3,0.8c0.6-0.8,1.2-1.6,1.8-2.4c0,0,0.3-0.3,0.6-0.7
				c0.7-1,2.9-3.7,3.2-4c0.5-1,1.9-1.4,3-0.8c1,0.6,1.4,1.9,0.7,2.9l-0.2,0.3c-0.2,0.3-1.1,1.4-3.4,4.3l-1.5,2
				c-0.1,0.1-0.5,0.5-0.7,0.8c-0.1,0.1-0.2,0.2-0.2,0.2s-1.2,1.4-1.6,1.7C21.2,28.6,20.7,28.8,20.1,28.9z"/>
		</g>
	</g>
</g>
</svg>
