<?xml version="1.0" encoding="utf-8"?>
<!-- Generator: Adobe Illustrator 22.1.0, SVG Export Plug-In . SVG Version: 6.00 Build 0)  -->
<svg version="1.1" id="Layer_1" xmlns="http://www.w3.org/2000/svg" xmlns:xlink="http://www.w3.org/1999/xlink" x="0px" y="0px"
	 viewBox="0 0 14.7 12.7" style="enable-background:new 0 0 14.7 12.7;" xml:space="preserve">
<style type="text/css">
	.st0{clip-path:url(#SVGID_2_);fill:#E5AD23;}
	.st1{fill:#fff;}
</style>
<g id="Layer_2_1_">
</g>
<g id="Layer_1_1_">
	<g>
		<g>
			<defs>
				<rect id="SVGID_1_" x="-1771.6" y="-1147.7" width="640" height="540"/>
			</defs>
			<clipPath id="SVGID_2_">
				<use xlink:href="#SVGID_1_"  style="overflow:visible;"/>
			</clipPath>
			<path class="st0" d="M28-370c-26.6-11.2-53.8-8.9-81.3,7.1l0,0l-82.2,52.1c-20.4,11.9-41.9,15.1-65.8,9.6
				c-23.4-5.5-40.6-17.8-52.3-37.9c-15.2-26.1-33.8-62.3-54.9-107.4c-17.6-39.5-31.5-67.8-42.5-86.7
				c-23.6-40.3-49.9-89.8-78.1-147.2c-27.2-55.9-48-96-63.4-122.3c-49.3-84.3-112.7-153-188.3-204.1
				c-75.4-51-160.6-85.7-254.2-103.2c-75.7-11-161.6-4.9-255.3,18.3c-93.3,23.1-171.7,53-233,88.9
				c-61.3,35.9-125.4,87.9-190.2,154.6c-65.3,67.1-114.3,139.8-145.5,216.1c-32.6,79.4-30.5,151.7,6.3,214.6
				c13.4,22.9,37.3,43.2,70.9,60.3c36.2,18.5,66.5,21,89.9,7.3c52.4-30.7,99.3-79.4,139.6-145.1c27.6-48,54-88.9,78.5-121.8
				c23.5-31.5,51.6-56.9,83.6-75.6c112.7-65.9,206.4-94.3,278.5-84.3c17,2.4,33.8,7.7,50.4,15.6c1.3,0.6,2.4,1.2,3.6,1.8
				c7.3,3.7,14.6,7.9,21.8,12.7c21,14.8,35.8,33.9,49.2,58.7c5.4,9.9,14,18.4,18.3,28.8c14.2,34.9-28.4,60.8-51.5,77.6
				c-17.4,12.7-117.4,57.5-125.3,60.7l0.1,0.2c-24.2,9.9-46.4,20.3-65.5,31.5c-81.4,47.7-154.6,105-217.4,170.6
				c-62.8,65.4-113.3,136-150.2,210.1c-31.9,68.6-49.4,137.3-52,204.2c-2.6,67.9,13.5,132.2,48,191.2
				c78.9,134.7,182,213.7,306.5,234.8c123.4,20.9,250.7-6.4,378.4-81.1c77.1-45.1,155.7-107,233.4-183.8
				c72.8-71.9,123.6-145.4,151.3-218.8c64.8,25.7,125.3,35.2,180,28C-174.2,58.2-105,31.2-27-14.5C16-39.6,53.4-83,84.4-143.5
				c32.3-63.2,34.1-120.2,5.1-169.6C73.5-340.5,52.8-359.6,28-370z"/>
		</g>
	</g>
	<g>
		<path class="st1" d="M5.7,12.4L5.7,12.4c-0.6,0-1.1-0.1-1.6-0.4l0,0c0,0-4-2.9-4-4.6l0,0c0.1-0.8,0.5-1.4,1.2-1.8l0,0
			c0.7-0.3,1.5-0.2,2.1,0.3l0,0l0.1,0.1c0.2,0.3,1.4,1.6,2,1.9c0.1-0.1,0.2-0.2,0.2-0.2C5.7,7.5,5.8,7.4,6,7.2
			C6.2,7,6.4,6.9,6.4,6.7l0.9-1.2c0,0,0.3-0.3,0.6-0.7c0.7-0.9,2.7-3.5,3-3.8l0,0c0.5-0.9,1.8-1.3,2.8-0.8C14.6,0.8,15,2,14.4,2.9
			l-0.2,0.3c-0.2,0.3-1,1.3-3.2,4.1L9.6,9.2C9.5,9.3,9.1,9.7,8.9,10c-0.1,0.1-0.2,0.2-0.2,0.2l0,0c0,0-1.1,1.3-1.5,1.6
			C6.7,12.1,6.2,12.3,5.7,12.4z"/>
	</g>
</g>
</svg>
