<?xml version="1.0" encoding="utf-8"?>
<!-- Generator: Adobe Illustrator 22.1.0, SVG Export Plug-In . SVG Version: 6.00 Build 0)  -->
<svg version="1.1" id="Layer_1" xmlns="http://www.w3.org/2000/svg" xmlns:xlink="http://www.w3.org/1999/xlink" x="0px" y="0px"
	 viewBox="0 0 47.5 45.3" style="enable-background:new 0 0 47.5 45.3;" xml:space="preserve">
<style type="text/css">
	.st0{fill:#86828E;}
</style>
<path class="st0" d="M45.2,30.4c-0.1-8.4,0-16.8-0.1-25.2c0-0.7-0.3-1.3-0.7-1.7c-0.1-0.1-0.1-0.2-0.2-0.3c0,0,0,0-0.1-0.1
	c-0.4-0.5-1-0.8-1.8-0.8c-12.5-0.7-25-0.7-37.5,0.1c-0.2,0-0.3,0.1-0.5,0.1C3,2.5,1.5,3.4,1.5,5.2c0,8.4,0,16.8,0.1,25.2
	c0,1.1,0.6,1.8,1.3,2.2c0.4,0.5,1.1,0.9,2,0.8c5-0.1,10-0.1,15.1-0.1v4.3c-2.6,0-5.2,0-7.8,0c-3.5,0-3.5,5.5,0,5.5
	c7.6-0.1,15.3,0,22.9-0.1c3.5,0,3.5-5.5,0-5.5c-2.6,0-5.2,0-7.8,0v-4.3c5,0,10,0,15.1,0c1.1,0,1.8-0.6,2.2-1.3
	C44.9,31.6,45.2,31.1,45.2,30.4z M39.6,7.7c0.1,6.7,0.1,13.4,0.1,20.1c-10.9,0-21.8,0-32.6,0.1C7,21.3,7,14.6,7,7.8
	C17.9,7.2,28.7,7.2,39.6,7.7z"/>
</svg>
