<?xml version="1.0" encoding="utf-8"?>
<!-- Generator: Adobe Illustrator 22.1.0, SVG Export Plug-In . SVG Version: 6.00 Build 0)  -->
<svg version="1.1" id="Layer_1" xmlns="http://www.w3.org/2000/svg" xmlns:xlink="http://www.w3.org/1999/xlink" x="0px" y="0px"
	 viewBox="0 0 15 12.5" style="enable-background:new 0 0 15 12.5;" xml:space="preserve">
<style type="text/css">
	.st0{fill:#86828E;}
</style>
<g>
	<g id="Layer_2_1_">
	</g>
	<g>
		<path class="st0" d="M10.5,4.7c0.1,0,0.3,0.1,0.4,0.1c0.4,0,0.8-0.2,1.1-0.6c0.3-0.4,0.4-0.9,0.4-1.5c0-0.1,0-0.1,0-0.2
			c0-0.5,0.1-1.4-0.6-1.5C11,0.8,10,1,9.5,1.5C9.2,2,9.1,2.7,9.2,3.1C9.2,3.7,9.6,4.4,10.5,4.7z"/>
		<path class="st0" d="M14.6,9.3c-0.2-0.7-0.5-1.1-0.9-1.7c-0.4-0.7-0.8-1.2-1.5-1.7c-0.4-0.4-1.3-0.5-1.9-0.5
			c-0.5,0-0.9,0.1-1.3,0.3C9.1,6,9,6.3,8.9,6.8C8.8,7.4,8.6,7.7,8.5,8.1C8.4,8.3,8.3,8.6,8.2,9C8,9.7,7.7,10.3,7.5,10.9
			c0,0.1-0.1,0.1-0.1,0.2c0.1,0,0.2,0,0.3,0c0.8,0,1.5-0.1,2.3-0.2c0.8-0.1,1.5,0.1,2.2,0.2c0.6,0.1,1.4,0.1,2-0.3
			C14.9,10.5,14.8,9.9,14.6,9.3z"/>
		<g>
			<path class="st0" d="M3.7,4.4c0.1,0,0.2,0.1,0.4,0.1c0.4,0,0.7-0.2,1-0.5C5.4,3.5,5.4,3,5.4,2.6c0-0.1,0-0.1,0-0.2
				c0-0.5,0.1-1.3-0.6-1.4c-0.6-0.1-1.5,0-2,0.5C2.6,1.9,2.5,2.6,2.5,3C2.6,3.5,2.9,4.1,3.7,4.4z"/>
			<path class="st0" d="M7.5,4.9C7.1,4.6,6.6,4.7,6.2,4.8C5.5,4.9,4.8,5.3,4.3,5.4c-0.8,0-1-0.1-1.9-0.4C1.8,4.7,1,4.7,0.5,5.3
				C0.1,5.7,0.3,6.4,0.4,7c0.2,0.9,0.4,1.3,0.8,2.1c0.4,0.9,0.7,1.4,1.4,2.2c0.4,0.5,1.2,0.6,1.8,0.6c0.8,0,1.6-0.5,1.9-1.3
				c0.2-0.5,0.5-1,0.6-1.6c0.3-0.9,0.4-1.1,0.6-2c0.1-0.6,0.2-0.8,0.2-1.1C7.8,5.5,7.7,5.1,7.5,4.9z"/>
		</g>
	</g>
</g>
</svg>
