<?xml version="1.0" encoding="utf-8"?>
<!-- Generator: Adobe Illustrator 22.1.0, SVG Export Plug-In . SVG Version: 6.00 Build 0)  -->
<svg version="1.1" id="Layer_1" xmlns="http://www.w3.org/2000/svg" xmlns:xlink="http://www.w3.org/1999/xlink" x="0px" y="0px"
	 viewBox="0 0 13.2 6.2" style="enable-background:new 0 0 13.2 6.2;" xml:space="preserve">
<style type="text/css">
	.st0{fill:#86828E;}
</style>
<path class="st0" d="M9.3,2.9c0,0.1,0,0.3,0,0.4C9.4,3.7,9.6,4,9.9,4.2c0.3,0.2,0.7,0.3,1,0.3c0.3,0,0.5-0.1,0.7-0.2
	c0.6-0.4,0.6-1.3,0.2-1.9c-0.3-0.5-0.9-0.9-1.5-0.7C10,1.7,9.8,1.9,9.6,2.1C9.4,2.4,9.3,2.6,9.3,2.9z"/>
<path class="st0" d="M7.9,2.6C7.9,2.7,8,2.8,8,3c0,0.4-0.1,0.7-0.3,1C7.4,4.3,7,4.5,6.7,4.5c-0.3,0.1-0.5,0-0.8-0.1
	C5.2,4.2,5.1,3.3,5.3,2.7C5.5,2.1,6,1.6,6.6,1.6c0.3,0,0.6,0.1,0.8,0.3C7.6,2.1,7.8,2.3,7.9,2.6z"/>
<path class="st0" d="M1,2.9c0,0.1,0,0.3,0,0.4C1.1,3.7,1.3,4,1.6,4.2c0.3,0.2,0.7,0.3,1,0.3c0.3,0,0.5-0.1,0.7-0.2
	C4,3.9,3.9,3,3.6,2.4C3.3,1.9,2.7,1.5,2,1.7C1.8,1.7,1.5,1.9,1.3,2.1C1.2,2.4,1.1,2.6,1,2.9z"/>
</svg>
