<?xml version="1.0" encoding="utf-8"?>
<!-- Generator: Adobe Illustrator 22.1.0, SVG Export Plug-In . SVG Version: 6.00 Build 0)  -->
<svg version="1.1" id="Layer_1" xmlns="http://www.w3.org/2000/svg" xmlns:xlink="http://www.w3.org/1999/xlink" x="0px" y="0px"
	 viewBox="0 0 47.5 52" style="enable-background:new 0 0 47.5 52;" xml:space="preserve">
<style type="text/css">
	.st0{fill:#86828E;}
</style>
<g>
	<path class="st0" d="M15.6,3.7c-4.1,0-8.3,0.1-12.4-0.1C1.4,3.5,0.5,4.9,0.6,6.4c0,0.2-0.1,0.4-0.1,0.6c0.1,3.6,0,7.2,0.1,10.9
		c0.1,3.5,5.5,3.5,5.5,0C6,14.9,6.1,12,6,9.1c3.2,0.1,6.4,0,9.6,0C19.1,9.1,19.1,3.7,15.6,3.7z"/>
	<path class="st0" d="M15.6,42.9c-3.1,0-6.2,0.1-9.3,0c-0.1-3.4-0.1-6.8-0.2-10.2c0-3.5-5.5-3.5-5.5,0c0.1,4.3,0.1,8.5,0.2,12.8
		c0,1.3,0.8,2.1,1.8,2.5c0.4,0.2,0.8,0.4,1.3,0.4c3.9,0.2,7.8,0,11.7,0.1C19.1,48.4,19.1,43,15.6,42.9z"/>
	<path class="st0" d="M41.4,33.6c-0.1,3.1-0.3,6.1-0.5,9.2c-2.9,0.1-5.9,0-8.8,0.1c-3.5,0.1-3.5,5.5,0,5.5c3.8-0.1,7.5,0.1,11.3-0.2
		c0.4,0,0.6-0.1,0.9-0.3c0,0,0,0,0.1,0c0.1,0,0.2-0.1,0.3-0.2c0.8-0.4,1.5-1.1,1.6-2.3c0.3-3.9,0.5-7.9,0.7-11.8
		C47,30.1,41.5,30.1,41.4,33.6z"/>
	<path class="st0" d="M47,6.5c0-0.8-0.3-1.4-0.7-1.8c0,0,0-0.1-0.1-0.1c-0.1-0.1-0.2-0.1-0.2-0.2c-0.4-0.4-1-0.6-1.7-0.6
		c-4.1,0-8.1,0.1-12.2-0.1c-3.5-0.2-3.5,5.3,0,5.5c3.2,0.1,6.3,0.1,9.5,0.1c0,3.2,0.1,6.4-0.1,9.7c-0.2,3.5,5.2,3.5,5.5,0
		C47.1,14.8,46.9,10.7,47,6.5z"/>
</g>
</svg>
