<?xml version="1.0" encoding="UTF-8"?>
<svg width="20px" height="19px" viewBox="0 0 20 19" version="1.1" xmlns="http://www.w3.org/2000/svg" xmlns:xlink="http://www.w3.org/1999/xlink">
    <!-- Generator: Sketch 52.5 (67469) - http://www.bohemiancoding.com/sketch -->
    <title>Export Manager</title>
    <desc>Created with Sketch.</desc>
    <defs>
        <polygon id="path-1" points="0 0.355166667 19.9758064 0.355166667 19.9758064 13.7751667 0 13.7751667"></polygon>
    </defs>
    <g id="Campaign-Statistics" stroke="none" stroke-width="1" fill="none" fill-rule="evenodd">
        <g id="View-Stats" transform="translate(-25.000000, -296.000000)">
            <g id="Nav-Bar" transform="translate(0.000000, -1.000000)">
                <g id="Export-Manager" transform="translate(25.000000, 297.000000)">
                    <g id="Group-3" transform="translate(0.000000, 0.478250)">
                        <mask id="mask-2" fill="white">
                            <use xlink:href="#path-1"></use>
                        </mask>
                        <g id="Clip-2"></g>
                        <path d="M5.04991667,3.00516667 L2.73825,9.54183333 L1.79575,3.00516667 L5.04991667,3.00516667 Z M19.82075,2.69266667 C19.6640833,2.47433333 19.41075,2.34516667 19.1424167,2.34516667 L12.5074167,2.34516667 L12.7715833,1.416 C12.84325,1.16516667 12.7924167,0.894333333 12.6349167,0.686 C12.4774167,0.477666667 12.23075,0.355166667 11.9699167,0.355166667 L6.57575,0.355166667 C6.22241667,0.355166667 5.90825,0.577666667 5.79075,0.910166667 L5.63908333,1.3385 L0.83325,1.3385 C0.591583333,1.3385 0.361583333,1.4435 0.204083333,1.626 C0.0449166667,1.8085 -0.0259166667,2.051 0.00825,2.291 L1.50408333,12.666 C1.51825,12.7601667 1.63491667,13.276 1.73908333,13.4226667 C1.89575,13.6435 2.14991667,13.7751667 2.41991667,13.7751667 L5.18408333,13.7751667 C5.51825,13.7751667 5.81908333,13.5768333 5.94991667,13.2701667 C6.01741667,13.1118333 6.05158333,12.9501667 6.05325,12.7785 C6.06658333,11.9976667 6.07991667,10.7026667 6.08991667,9.7685 L6.10241667,8.60433333 C6.10575,8.22933333 6.40825,7.926 6.78325,7.9235 C8.09491667,7.91516667 10.98325,7.90266667 12.3840833,7.90766667 C12.7690833,7.90933333 13.07325,8.2235 13.0640833,8.6085 C13.0365833,9.8485 13.0224167,12.1793333 13.01825,12.8135 C13.01825,12.8626667 13.0215833,12.9118333 13.0299167,12.9593333 C13.0699167,13.1935 13.1790833,13.3993333 13.3465833,13.5535 C13.50075,13.696 13.7024167,13.7751667 13.9124167,13.7751667 L15.8124167,13.7751667 C16.1690833,13.7751667 16.4865833,13.5476667 16.60075,13.211 L19.93075,3.44683333 C20.01825,3.19266667 19.9765833,2.91183333 19.82075,2.69266667 Z" id="Fill-1" fill="#FEFEFE" mask="url(#mask-2)"></path>
                    </g>
                    <path d="M11.6694167,14.8754167 C11.6694167,14.8754167 11.5335833,14.9145833 11.5060833,14.7554167 C11.5094167,14.3104167 11.5244167,10.9920833 11.5569167,10.54625 C11.5835833,10.1829167 11.3669167,9.96875 11.0935833,9.89458333 C11.05275,9.87458333 10.9794167,9.87458333 10.92775,9.87125 C10.9019167,9.86625 10.81775,9.86375 10.7885833,9.86291667 C10.4835833,9.84791667 10.2660833,9.82291667 10.0369167,9.80625 L9.62775,9.84291667 C9.52025,9.83375 9.61691667,9.84208333 9.46025,9.84958333 C9.36108333,9.85458333 9.27691667,9.85791667 9.22941667,9.85708333 C9.10441667,9.85291667 8.33608333,9.78541667 8.23275,9.81458333 C7.91525,9.85291667 7.62275,10.0745833 7.61691667,10.48625 C7.61025,10.9604167 7.59525,13.8829167 7.58191667,14.7154167 C7.57691667,15.0220833 7.32941667,14.9470833 7.32941667,14.9470833 L7.32941667,14.9529167 C7.24525,14.91625 7.15858333,14.8904167 7.06691667,14.8904167 C6.93108333,14.8904167 6.79525,14.92875 6.67525,15.0095833 C6.35275,15.22625 6.26775,15.6629167 6.48358333,15.9854167 L6.59275,16.14125 C6.77108333,16.38375 6.95608333,16.6129167 7.15858333,16.84375 L7.67025,17.38375 C7.77608333,17.5070833 7.93358333,17.6520833 8.08441667,17.79125 C8.14941667,17.8504167 8.20691667,17.9020833 8.23858333,17.9354167 C8.47025,18.1770833 8.72441667,18.39375 8.97108333,18.6220833 C9.25858333,18.8879167 9.62025,18.84875 9.82358333,18.6595833 C10.13525,18.36875 10.4094167,18.1570833 10.67775,17.8754167 C10.7085833,17.8429167 10.7644167,17.7920833 10.8294167,17.7320833 C10.9810833,17.5929167 11.13775,17.4479167 11.22025,17.3504167 L11.7744167,16.7645833 C11.9594167,16.5545833 12.14275,16.3245833 12.3235833,16.07875 L12.4310833,15.92625 C12.6469167,15.60625 12.5544167,15.1879167 12.2360833,14.9695833 C12.06525,14.85125 11.8585833,14.8270833 11.6694167,14.8754167" id="Fill-4" fill="#FEFEFE"></path>
                </g>
            </g>
        </g>
    </g>
</svg>