<?xml version="1.0" encoding="utf-8"?>
<!-- Generator: Adobe Illustrator 22.1.0, SVG Export Plug-In . SVG Version: 6.00 Build 0)  -->
<svg version="1.1" id="Layer_1" xmlns="http://www.w3.org/2000/svg" xmlns:xlink="http://www.w3.org/1999/xlink" x="0px" y="0px"
	 viewBox="0 0 76 93" style="enable-background:new 0 0 76 93;" xml:space="preserve">
<style type="text/css">
	.st0{fill:#86828E;}
</style>
<path class="st0" d="M73.7,45.8l-0.1-2.3c-0.1-2.4-0.4-4.5-0.9-6.3c-0.9-3.2-3.6-5.6-6.8-6.4c-1.3-0.3-2.7-0.3-4.1,0
	c-0.1-0.3-0.2-0.6-0.4-0.9c-0.9-1.6-2.2-3-3.8-3.9c-2.8-1.6-6.3-1.6-9.8-0.2c-0.9-0.7-1.9-1.2-3.1-1.4c-1.6-0.4-3.2-0.3-4.8,0
	c0-3.5,0-6.9,0.1-10.4C40.3,6.9,37,4,34.1,2.8c-4.9-2.1-10.3,0.3-12.7,5.5c-2.1,4.5-2,9.4-2,13.6c0,0.8,0,1.6,0,2.4l0,17.2
	c-2.1-1.2-4.6-1.9-7.1-2c-4.3-0.2-7.7,1.6-9.9,4.7c-0.7,1-0.9,2.4-0.5,3.6c0.7,2.1,1.8,4.4,2.7,6.4c0.6,1.3,1.1,2.5,1.5,3.4
	c0.6,1.6,1.4,3.2,2.1,4.8c0.6,1.3,1.2,2.5,1.7,3.8c2.6,6.6,5.7,13.5,12.5,18.2c4,2.7,8.7,4.6,13.7,5.4c2.3,0.4,5,0.7,7.8,0.7
	c3.6,0,7.4-0.5,11.3-2.1c5.6-2.4,10.5-6.6,13.8-11.9c4.4-7,4.6-14,4.4-21.2c0-1.4,0-2.8,0.1-4.2C73.7,49.4,73.7,47.7,73.7,45.8z
	 M65.7,50.8c-0.1,1.6-0.1,3.2-0.1,4.7c0.2,6.3,0.1,11.6-3.2,16.7c-2.5,4-6.1,7.1-10.2,8.8c-3.9,1.6-8.4,1.9-14.7,0.9
	c-3.8-0.6-7.4-2-10.4-4.1c-5-3.5-7.4-8.9-9.7-14.6c-0.6-1.5-1.2-2.9-1.9-4.3c-0.7-1.4-1.3-2.8-1.9-4.2c-0.4-1-1-2.4-1.7-3.9
	c-0.5-1-1-2.1-1.4-3.2c0.5-0.2,1.1-0.2,1.7-0.2c2.3,0.1,4.1,1.2,4.5,1.8c1.9,3,2.1,3.7,2.4,4.4c0.1,0.3,0.2,0.7,0.4,1.1l0,4.2
	c0,2.2,1.8,4,4,4s4-1.8,4-4l0-5c0-0.1,0-0.2,0-0.3l0-29.3c0-0.8,0-1.7,0-2.5c-0.1-3.8-0.1-7.3,1.2-10.2c0.2-0.3,1-2.1,2.4-1.5
	c1,0.4,1,2.5,1,3.7c-0.2,4.5-0.2,9.1-0.2,13.6l-0.1,9.2c-0.1,3.1-0.1,6.3,0,9.4c0.1,2.2,1.9,3.9,4.1,3.9c2.2-0.1,3.9-1.9,3.9-4.1
	c-0.1-3,0-6,0-9.1l0-4.1c1-0.5,2.2-0.7,3.2-0.5c0.4,0.1,0.9,1,0.9,2c0,0.5,0,1.3,0,2.3c-0.1,3.7-0.1,6.2,0.2,7.7c0.4,1.8,2,3,3.8,3
	c0.3,0,0.6,0,0.8-0.1c2.1-0.4,3.5-2.5,3.1-4.7c-0.1-0.8-0.1-4.2-0.1-5.8c0-1.1,0-2.1,0-2.7c0-0.4-0.1-0.7-0.1-1.1
	c0.8-0.2,1.5-0.2,2,0.1c0.3,0.2,0.6,0.4,0.7,0.8c0.1,0.1,0.1,0.2,0.1,1.3c0,1.4,0.1,6.8,0.5,8.9c0.4,1.9,2,3.3,3.9,3.3
	c0.2,0,0.5,0,0.7-0.1c2.2-0.4,3.6-2.5,3.2-4.6c-0.1-0.6-0.2-2-0.3-3.6c0.5-0.3,1.1-0.5,1.5-0.4c0.5,0.1,0.9,0.5,1,0.9
	c0.3,1.2,0.6,2.6,0.6,4.5l0.1,2.3C65.8,47.8,65.7,49.3,65.7,50.8z"/>
</svg>
