<?xml version="1.0" encoding="utf-8"?>
<!-- Generator: Adobe Illustrator 23.0.1, SVG Export Plug-In . SVG Version: 6.00 Build 0)  -->
<svg version="1.1" id="Layer_1" xmlns="http://www.w3.org/2000/svg" xmlns:xlink="http://www.w3.org/1999/xlink" x="0px" y="0px"
	 viewBox="0 0 15 15" style="enable-background:new 0 0 15 15;" xml:space="preserve">
<style type="text/css">
	.st0{fill-rule:evenodd;clip-rule:evenodd;fill:#FFFFFF;}
</style>
<title>Icons/Home</title>
<desc>Created with Sketch.</desc>
<path class="st0" d="M14.4,7l-0.2-0.4c-0.4-0.6-0.8-1.1-1.2-1.6l-1.1-1.2c-0.2-0.3-0.6-0.6-0.9-0.9c-0.1-0.1-0.3-0.3-0.3-0.3
	c-0.1-0.1-1.4-1.4-1.8-1.7C8.5,0.5,8,0.4,7.5,0.4c-0.5,0-1,0.2-1.4,0.4C5.7,1.1,4.4,2.5,4.3,2.6C4.2,2.7,4.1,2.8,4,2.9
	C3.6,3.2,3.3,3.6,3.1,3.8L2,5.1c-0.4,0.5-0.8,1-1.2,1.6L0.6,7C0.1,7.8,0.3,8.7,1,9.2c0.4,0.3,0.8,0.3,1.2,0.2v0c0,0,0.3-0.1,0.3,0.3
	c0,1,0,2-0.1,3.1c-0.1,0.8,0.4,1.3,1,1.5c0,0,0,0,0,0c0.1,0,0.2,0,0.4,0.1c0.1,0,0.2,0,0.3,0c0.7,0,1.1,0.1,1.6,0.1l1.5,0.1
	c0.2,0,0.6,0,0.9,0c0.2,0,0.4,0,0.5,0c0.3,0,1.9,0.2,2.1,0.1c0,0,0,0,0,0C11.4,14.5,12,14,12,13c0-1.2,0.1-2.4,0.1-3.6
	c0-0.1,0-0.2,0.2-0.2c0,0,0.1,0,0.1,0.1v0c0.2,0.1,0.5,0.2,0.8,0.2c0.3,0,0.6-0.1,0.8-0.3C14.7,8.8,14.9,7.8,14.4,7z M8.3,11.9
	c0,0.6-0.5,1.1-1,1.1c-0.6,0-1-0.5-1-1.1v-1.8c0-0.6,0.5-1.1,1-1.1c0.6,0,1,0.5,1,1.1V11.9z"/>
</svg>
