<?xml version="1.0" encoding="utf-8"?>
<!-- Generator: Adobe Illustrator 23.0.1, SVG Export Plug-In . SVG Version: 6.00 Build 0)  -->
<svg version="1.1" id="Layer_1" xmlns="http://www.w3.org/2000/svg" xmlns:xlink="http://www.w3.org/1999/xlink" x="0px" y="0px"
	 viewBox="0 0 45.7 51.5" style="enable-background:new 0 0 45.7 51.5;" xml:space="preserve">
<style type="text/css">
	.st0{fill:#b7c3cb;}
</style>
<g id="Layer_2_1_">
</g>
<g>
	<path class="st0" d="M28,18.3c-1-0.8-2.5-0.6-3.4,0.3l-0.1,0.1c-1.1,1.1-1,2.9,0.2,3.9c0.5,0.4,1,0.9,1.3,1.5
		c1.4,2.2,0.9,5.1-0.9,7l-5.4,5.4c-2.1,2.1-5.5,2.4-7.7,0.5c-2.1-1.9-2.5-4.9-1-7.2c0.3-0.5,0.3-1.1,0.2-1.6
		c-0.3-0.9-0.5-1.8-0.7-2.7c-0.2-1-1.5-1.4-2.2-0.7c-4.1,4.1-4.6,10.7-0.8,15.1c2.2,2.5,5.2,3.8,8.2,3.8c2.8,0,5.6-1.1,7.7-3.2
		l5.5-5.5c3.6-3.6,4.5-9.3,1.8-13.7C29.8,20,28.9,19.1,28,18.3z"/>
	<path class="st0" d="M37.8,10.4c-2.2-2.2-5.2-3.3-8.4-3.1c-2.7,0.2-5.3,1.5-7.2,3.4c-1.4,1.4-3.3,3.3-5,5c-3,3-4.3,7.5-3,11.6
		c0.6,1.9,1.6,3.3,2.8,4.4c1,0.9,2.6,0.8,3.5-0.2l0.1-0.1c1-1,1.1-2.7,0.1-3.7c-0.5-0.5-0.9-1-1.2-1.7c-1-2.2-0.4-4.7,1.3-6.4
		l5.4-5.4c0.9-0.9,2.1-1.6,3.3-1.7c1.7-0.2,3.4,0.4,4.6,1.6c1.8,1.8,2.1,4.6,0.8,6.8c-0.3,0.4-0.3,1-0.1,1.4c0.3,1,0.5,2,0.6,2.9
		c0.1,1.1,1.4,1.6,2.2,0.8l0,0C41.8,21.8,42.1,14.7,37.8,10.4z"/>
</g>
</svg>
