<?xml version="1.0" encoding="utf-8"?>
<!-- Generator: Adobe Illustrator 22.1.0, SVG Export Plug-In . SVG Version: 6.00 Build 0)  -->
<svg version="1.1" id="Layer_1" xmlns="http://www.w3.org/2000/svg" xmlns:xlink="http://www.w3.org/1999/xlink" x="0px" y="0px"
	 viewBox="0 0 31 45.3" style="enable-background:new 0 0 31 45.3;" xml:space="preserve">
<style type="text/css">
	.st0{fill:#86828E;}
</style>
<path class="st0" d="M28.1,4.8c0-0.2-0.1-0.3-0.1-0.5c0.1-1.4-0.7-2.8-2.5-2.8c-6.6,0-13.3,0-19.9,0.1c-1.2,0-1.9,0.7-2.3,1.5
	C2.9,3.5,2.6,4.1,2.6,4.8c0.1,12,0,24,0.1,36c0,1,0.4,1.6,1.1,2c0.4,0.4,1,0.7,1.8,0.7c6.6-0.1,13.3,0,19.9-0.1
	c0.7,0,1.2-0.3,1.6-0.6c0.1-0.1,0.2-0.2,0.3-0.3c0,0,0,0,0,0c0.4-0.4,0.8-1,0.8-1.8C28.7,28.7,28.7,16.8,28.1,4.8z M13.6,35.9
	c0-1,0.9-1.9,1.9-1.9s1.9,0.9,1.9,1.9c0,1-0.9,1.9-1.9,1.9S13.6,36.9,13.6,35.9z M23.2,30.8H8c0-8,0-16-0.1-24c5,0,10-0.1,15-0.1
	C23.2,14.8,23.4,22.8,23.2,30.8z"/>
</svg>
