<?xml version="1.0" encoding="utf-8"?>
<!-- Generator: Adobe Illustrator 22.1.0, SVG Export Plug-In . SVG Version: 6.00 Build 0)  -->
<svg version="1.1" id="Layer_1" xmlns="http://www.w3.org/2000/svg" xmlns:xlink="http://www.w3.org/1999/xlink" x="0px" y="0px"
	 viewBox="0 0 12.2 12.5" style="enable-background:new 0 0 12.2 12.5;" xml:space="preserve">
<style type="text/css">
	.st0{fill:#86828E;}
</style>
<g>
	<path class="st0" d="M10.1,9.1C10.1,9.1,10.1,9.1,10.1,9.1c-0.6,0-1-0.5-1-1c0-0.1,0-0.5,0-1.1c0-1.3,0.1-4.5,0.1-4.8
		c0-0.5,0.4-1,0.9-1.1c0.5,0,1,0.4,1.1,0.9c0,0.4,0,2.1-0.1,5c0,0.5,0,0.9,0,1.1C11.1,8.7,10.6,9.1,10.1,9.1z"/>
</g>
<path class="st0" d="M7.7,7.4c0-0.1-0.1-0.2-0.1-0.3C7.4,6.6,6.9,6.3,6.4,6C5.7,5.7,5,5.5,4.3,5.3C4,5.2,3.7,5.1,3.4,5
	C3.1,4.8,2.9,4.6,2.9,4.4C2.9,4.2,3,4.1,3.2,4c0.6-0.3,1.4-0.2,2,0c0.5,0.2,0.7,0.8,1.2,0.8c0.6,0,0.9-0.5,0.9-1
	C7.4,3.5,7.3,3.3,7,3C6.8,2.8,6.5,2.6,6.2,2.4C5.9,2.2,5.6,2.1,5.3,2.1c0-0.7,0-0.8,0-0.9l0-0.3c0-0.4-0.4-0.6-0.8-0.6
	C4.1,0.3,3.8,0.6,3.8,1l0,0.2c0,0,0,0.2,0,0.9C3.4,2.1,3,2.2,2.6,2.3C2,2.5,1.6,2.8,1.3,3.2C1,3.5,0.9,3.9,0.9,4.2
	c0,0.6,0.2,1,0.5,1.4C1.7,6,2,6.4,2.5,6.6c0.9,0.4,2,0.5,2.9,1.1c0.1,0.1,0.3,0.2,0.3,0.4c0.2,0.7-1.4,0.6-1.7,0.6
	c-0.3,0-0.6-0.1-1-0.2C2.8,8.3,2.6,8.1,2.4,7.8C2.4,7.7,2.3,7.6,2.1,7.5C2,7.4,1.8,7.4,1.7,7.4C1.4,7.4,1.2,7.5,1,7.6
	C0.8,7.8,0.7,8,0.7,8.3c0,0.6,0.4,1.1,0.9,1.4c0.4,0.3,1,0.6,1.5,0.7c0,0,0,0,0.1,0c-0.1,0.4-0.1,0.8-0.2,1
	c-0.1,0.4,0.1,0.8,0.4,0.9c0.1,0,0.2,0,0.2,0c0.3,0,0.6-0.2,0.7-0.5c0.1-0.2,0.2-0.9,0.2-1.4c0,0,0,0,0.1,0c0.5,0,1-0.1,1.4-0.2
	C7.2,9.8,8.1,8.6,7.7,7.4z"/>
<path class="st0" d="M9.1,10.7c0,0.1,0,0.2,0,0.3c0,0.3,0.2,0.5,0.4,0.7c0.2,0.2,0.5,0.2,0.7,0.2c0.2,0,0.4-0.1,0.5-0.2
	c0.4-0.3,0.4-1,0.2-1.4c-0.2-0.4-0.7-0.7-1.1-0.5C9.6,9.8,9.5,10,9.3,10.1C9.2,10.3,9.1,10.5,9.1,10.7z"/>
</svg>
