<?xml version="1.0" encoding="utf-8"?>
<!-- Generator: Adobe Illustrator 22.1.0, SVG Export Plug-In . SVG Version: 6.00 Build 0)  -->
<svg version="1.1" id="Layer_1" xmlns="http://www.w3.org/2000/svg" xmlns:xlink="http://www.w3.org/1999/xlink" x="0px" y="0px"
	 viewBox="0 0 12.2 12.5" style="enable-background:new 0 0 12.2 12.5;" xml:space="preserve">
<style type="text/css">
	.st0{fill:#D30F22;}
</style>
<g>
	<path class="st0" d="M10.4,9.1L10.4,9.1c-0.6,0-1-0.5-1-1c0-0.1,0-0.5,0-1.1c0-1.3,0.1-4.5,0.1-4.8c0-0.5,0.4-1,0.9-1.1
		c0.5,0,1,0.4,1.1,0.9c0,0.4,0,2.1-0.1,5c0,0.5,0,0.9,0,1.1C11.4,8.7,10.9,9.1,10.4,9.1z"/>
</g>
<path class="st0" d="M7.5,7.4c0-0.1-0.1-0.2-0.1-0.3C7.2,6.6,6.7,6.3,6.2,6C5.5,5.7,4.8,5.5,4.1,5.3C3.8,5.2,3.5,5.1,3.2,5
	C2.9,4.8,2.7,4.6,2.7,4.4C2.7,4.2,2.8,4.1,3,4c0.6-0.3,1.4-0.2,2,0c0.5,0.2,0.7,0.8,1.2,0.8c0.6,0,0.9-0.5,0.9-1
	c0.1-0.3,0-0.5-0.3-0.8C6.6,2.8,6.3,2.6,6,2.4C5.7,2.2,5.4,2.1,5.1,2.1c0-0.7,0-0.8,0-0.9V0.9c0-0.4-0.4-0.6-0.8-0.6
	C3.9,0.3,3.6,0.6,3.6,1v0.2c0,0,0,0.2,0,0.9c-0.4,0-0.8,0.1-1.2,0.2c-0.6,0.2-1,0.5-1.3,0.9c-0.3,0.3-0.4,0.7-0.4,1
	c0,0.6,0.2,1,0.5,1.4s0.6,0.8,1.1,1c0.9,0.4,2,0.5,2.9,1.1c0.1,0.1,0.3,0.2,0.3,0.4c0.2,0.7-1.4,0.6-1.7,0.6s-0.6-0.1-1-0.2
	C2.6,8.3,2.4,8.1,2.2,7.8c0-0.1-0.1-0.2-0.3-0.3C1.8,7.4,1.6,7.4,1.5,7.4C1.2,7.4,1,7.5,0.8,7.6C0.6,7.8,0.5,8,0.5,8.3
	c0,0.6,0.4,1.1,0.9,1.4c0.4,0.3,1,0.6,1.5,0.7c0,0,0,0,0.1,0c-0.1,0.4-0.1,0.8-0.2,1c-0.1,0.4,0.1,0.8,0.4,0.9c0.1,0,0.2,0,0.2,0
	c0.3,0,0.6-0.2,0.7-0.5c0.1-0.2,0.2-0.9,0.2-1.4c0,0,0,0,0.1,0c0.5,0,1-0.1,1.4-0.2C7,9.8,7.9,8.6,7.5,7.4z"/>
<path class="st0" d="M9.4,10.7c0,0.1,0,0.2,0,0.3c0,0.3,0.2,0.5,0.4,0.7s0.5,0.2,0.7,0.2s0.4-0.1,0.5-0.2c0.4-0.3,0.4-1,0.2-1.4
	S10.4,9.6,10,9.8c-0.2,0-0.3,0.2-0.5,0.3C9.4,10.3,9.4,10.5,9.4,10.7z"/>
</svg>
