<?xml version="1.0" encoding="utf-8"?>
<!-- Generator: Adobe Illustrator 22.1.0, SVG Export Plug-In . SVG Version: 6.00 Build 0)  -->
<svg version="1.1" id="Layer_1" xmlns="http://www.w3.org/2000/svg" xmlns:xlink="http://www.w3.org/1999/xlink" x="0px" y="0px"
	 viewBox="0 0 21 14.8" style="enable-background:new 0 0 21 14.8;" xml:space="preserve">
<style type="text/css">
	.st0{fill:#86828E;}
</style>
<path class="st0" d="M20.7,1.6c0-0.1,0-0.2,0-0.3c0,0,0,0,0-0.1c0,0,0,0,0,0c0-0.1,0-0.2-0.1-0.3c0,0,0-0.1-0.1-0.1
	c0-0.1-0.1-0.1-0.1-0.2c0,0,0,0,0,0c0,0-0.1-0.1-0.1-0.1c-0.1-0.1-0.1-0.1-0.2-0.1c0,0-0.1,0-0.1,0c-0.1,0-0.2,0-0.3,0
	c0,0,0,0-0.1,0C0.3,1.1,0.3,1.1,0,2c-0.1,0.4,0,0.8,0.3,1.1c0.1,0.1,1.9,1.5,3.7,3c0,0,0,0.1,0,0.1c0.1,0.5,0,3.3,0,5.7
	c0,0.3,0.2,0.7,0.5,0.9c0.2,0.1,0.4,0.2,0.5,0.2c0.2,0,0.3,0,0.4-0.1l3.3-1.6c2.2,2.8,2.7,3.4,3.2,3.4c0.1,0,0.2,0,0.4-0.1
	c0.3-0.1,0.5-0.3,0.6-0.6c0.4-0.8,4.9-7.8,7.6-12.1c0,0,0-0.1,0-0.1C20.6,1.7,20.7,1.6,20.7,1.6z M14.8,2.5L7.2,6.1
	c-0.8-0.7-2.4-2-3.7-3.1C6.1,2.9,10.7,2.7,14.8,2.5z M6.1,10.3c0-1.1,0-1.9,0-2.5C6.2,7.9,6.3,7.9,6.3,8c0.4,0.6,0.8,1.1,1.2,1.6
	L6.1,10.3z M11.8,11.9c-0.8-1-2.1-2.7-3.2-4.2l8.4-4C14.1,8.2,12.6,10.6,11.8,11.9z"/>
</svg>
