<?xml version="1.0" encoding="utf-8"?>
<!-- Generator: Adobe Illustrator 22.1.0, SVG Export Plug-In . SVG Version: 6.00 Build 0)  -->
<svg version="1.1" id="Layer_1" xmlns="http://www.w3.org/2000/svg" xmlns:xlink="http://www.w3.org/1999/xlink" x="0px" y="0px"
	 viewBox="0 0 15 15.1" style="enable-background:new 0 0 15 15.1;" xml:space="preserve">
<style type="text/css">
	.st0{fill:#fff;}
</style>
<g id="Layer_2_1_">
</g>
<g id="Layer_1_1_">
	<path class="st0" d="M9.6,12.5v-0.1c0-0.3-0.1-1.5-0.1-2.7c2.3-0.1,3.2-0.2,3.4-0.3l0.4-0.1C14.3,9.1,14.9,8,14.7,7
		c-0.2-1.1-1.3-1.7-2.4-1.6l-0.1,0c-0.3,0-1.7,0.1-3,0.2V5c0-0.1,0-0.4,0-0.7C9.2,4.1,9.2,4,9.2,3.8c-0.1-0.2,0-1,0-1.3
		c0.2-1.1-0.5-2.1-1.6-2.3C6.7,0,5.5,0.7,5.3,1.8C5.2,2.4,5.3,4,5.3,4s0,0.1,0,0.3c0,0.4,0,0.8,0,1v0.6H5c-0.1,0-0.4,0-0.6,0
		c-0.3,0-0.6,0-0.6,0.1C3.6,5.8,2.7,5.8,2.5,5.8C1.4,5.7,0.4,6.2,0.2,7.3C0.1,8,0.3,8.7,0.8,9.1c0.3,0.3,0.6,0.4,1,0.6
		C2.4,9.9,4,9.8,4,9.8c0.1,0,0.1,0,0.3,0c0.4,0.1,0.8,0.1,1,0l0.1,0c0.1,2,0.2,2.8,0.2,3l0.1,0.5C5.7,13.7,6,14,6.2,14.2
		c0.5,0.5,1.1,0.7,1.8,0.6C9.1,14.5,9.8,13.5,9.6,12.5z"/>
</g>
</svg>
