<?xml version="1.0" encoding="UTF-8"?>
<svg width="15px" height="21px" viewBox="0 0 15 21" version="1.1" xmlns="http://www.w3.org/2000/svg" xmlns:xlink="http://www.w3.org/1999/xlink">
    <!-- Generator: Sketch 52.5 (67469) - http://www.bohemiancoding.com/sketch -->
    <title>Receipt Manager</title>
    <desc>Created with Sketch.</desc>
    <defs>
        <polygon id="path-1" points="0.0004 0.0003 14.74 0.0003 14.74 20.4661 0.0004 20.4661"></polygon>
    </defs>
    <g id="Campaign-Statistics" stroke="none" stroke-width="1" fill="none" fill-rule="evenodd">
        <g id="View-Stats" transform="translate(-26.000000, -244.000000)">
            <g id="Nav-Bar" transform="translate(0.000000, -1.000000)">
                <g id="Receipt-Manager" transform="translate(26.000000, 245.000000)">
                    <mask id="mask-2" fill="white">
                        <use xlink:href="#path-1"></use>
                    </mask>
                    <g id="Clip-2"></g>
                    <path d="M11.1064,6.7603 L8.8404,6.7603 C8.2884,6.7603 7.8404,6.3123 7.8404,5.7603 C7.8404,5.2083 8.2884,4.7603 8.8404,4.7603 L11.1064,4.7603 C11.6594,4.7603 12.1064,5.2083 12.1064,5.7603 C12.1064,6.3123 11.6594,6.7603 11.1064,6.7603 M11.1064,10.7123 L8.8404,10.7123 C8.2884,10.7123 7.8404,10.2643 7.8404,9.7123 C7.8404,9.1603 8.2884,8.7123 8.8404,8.7123 L11.1064,8.7123 C11.6594,8.7123 12.1064,9.1603 12.1064,9.7123 C12.1064,10.2643 11.6594,10.7123 11.1064,10.7123 M11.1064,14.6653 L3.8404,14.6653 C3.2884,14.6653 2.8404,14.2173 2.8404,13.6653 C2.8404,13.1133 3.2884,12.6653 3.8404,12.6653 L11.1064,12.6653 C11.6594,12.6653 12.1064,13.1133 12.1064,13.6653 C12.1064,14.2173 11.6594,14.6653 11.1064,14.6653 M2.6754,8.7083 C2.6754,8.5323 2.7354,8.3893 2.8504,8.2823 C2.9644,8.1773 3.1154,8.1233 3.2964,8.1233 C3.3934,8.1233 3.4894,8.1473 3.5814,8.1963 C3.6744,8.2443 3.7414,8.3023 3.7784,8.3683 C3.8644,8.5703 4.0004,8.7133 4.1964,8.8113 C4.3944,8.9103 4.5984,8.9603 4.8034,8.9603 C5.0134,8.9603 5.9924,8.9763 5.8714,8.5593 C5.8404,8.4533 5.7464,8.3803 5.6524,8.3213 C5.0924,7.9673 4.4174,7.9003 3.8224,7.6263 C3.5274,7.4783 3.2834,7.2813 3.0944,7.0413 C2.9044,6.7963 2.8074,6.4923 2.8074,6.1373 C2.8074,5.9183 2.8904,5.6993 3.0524,5.4863 C3.2694,5.2033 3.5284,5.0353 3.8634,4.9303 C4.1134,4.8533 4.3714,4.8083 4.6304,4.7793 C4.6504,4.3633 4.6494,4.2613 4.6484,4.2403 L4.6414,4.1093 C4.6274,3.8583 4.8144,3.6213 5.0644,3.6023 C5.3104,3.5893 5.5334,3.7503 5.5564,4.0003 L5.5694,4.2023 C5.5714,4.2373 5.5744,4.3173 5.5534,4.7713 C5.7584,4.8013 5.9584,4.8583 6.1404,4.9663 C6.3544,5.0933 6.5354,5.2303 6.6744,5.3733 C6.8204,5.5243 6.8944,5.6973 6.8944,5.8863 C6.8944,6.2173 6.6684,6.5123 6.3194,6.5063 C5.9604,6.5003 5.8364,6.1433 5.5424,6.0063 C5.1724,5.8343 4.6554,5.8103 4.2834,5.9763 C4.1264,6.0463 4.0484,6.1343 4.0484,6.2453 C4.0484,6.3783 4.1694,6.4973 4.4084,6.5973 C4.5744,6.6773 4.7574,6.7443 4.9564,6.7983 C5.4114,6.9233 5.8534,7.0433 6.2734,7.2663 C6.5934,7.4373 6.9064,7.6353 7.0654,7.9763 C7.0884,8.0273 7.1094,8.0793 7.1264,8.1353 C7.3454,8.8763 6.7564,9.6553 6.0844,9.9053 C5.7914,10.0133 5.4924,10.0343 5.1834,10.0483 C5.1724,10.0493 5.1634,10.0483 5.1524,10.0483 C5.1094,10.3553 5.0434,10.7803 4.9974,10.9093 C4.9294,11.0983 4.7524,11.2163 4.5634,11.2163 C4.5114,11.2163 4.4604,11.2073 4.4084,11.1893 C4.1714,11.1043 4.0464,10.8463 4.1264,10.6093 C4.1474,10.5313 4.1934,10.2473 4.2284,10.0043 C4.2164,10.0023 4.2064,10.0033 4.1944,10.0013 C3.8454,9.9383 3.5024,9.8063 3.2214,9.5853 C2.9544,9.3743 2.6754,9.0693 2.6754,8.7083 M13.7404,0.0003 L1.0004,0.0003 C0.4474,0.0003 0.0004,0.4483 0.0004,1.0003 L0.0004,19.4663 C0.0004,19.8613 0.2324,20.2183 0.5934,20.3793 C0.9534,20.5403 1.3774,20.4733 1.6684,20.2093 L3.1234,18.8993 L4.5774,20.2093 C4.9564,20.5523 5.5344,20.5523 5.9154,20.2093 L7.3704,18.8993 L8.8244,20.2093 C9.2014,20.5503 9.7784,20.5503 10.1594,20.2113 L11.6174,18.9083 L13.0734,20.2113 C13.2604,20.3783 13.4994,20.4663 13.7404,20.4663 C13.8784,20.4663 14.0174,20.4373 14.1484,20.3793 C14.5084,20.2183 14.7404,19.8603 14.7404,19.4663 L14.7404,1.0003 C14.7404,0.4483 14.2934,0.0003 13.7404,0.0003" id="Fill-1" fill="#FEFEFE" mask="url(#mask-2)"></path>
                </g>
            </g>
        </g>
    </g>
</svg>