<?xml version="1.0" encoding="UTF-8"?>
<svg width="13px" height="25px" viewBox="0 0 13 25" version="1.1" xmlns="http://www.w3.org/2000/svg" xmlns:xlink="http://www.w3.org/1999/xlink">
    <!-- Generator: Sketch 52.5 (67469) - http://www.bohemiancoding.com/sketch -->
    <title>Tagging Manager</title>
    <desc>Created with Sketch.</desc>
    <defs>
        <polygon id="path-1" points="0 0.574816667 12.9314545 0.574816667 12.9314545 13.948025 0 13.948025"></polygon>
    </defs>
    <g id="Campaign-Statistics" stroke="none" stroke-width="1" fill="none" fill-rule="evenodd">
        <g id="View-Stats" transform="translate(-29.000000, -348.000000)">
            <g id="Nav-Bar" transform="translate(0.000000, -1.000000)">
                <g id="Tagging-Manager" transform="translate(29.000000, 348.000000)">
                    <g id="Group-3" transform="translate(0.000000, 0.645833)">
                        <mask id="mask-2" fill="#86828E">
                            <use xlink:href="#path-1"></use>
                        </mask>
                        <g id="Clip-2"></g>
                        <path d="M6.89401818,0.833816667 L7.70474545,2.41348333 C7.82410909,2.64798333 8.11365455,2.74015 8.35001818,2.62115 L9.94665455,1.81265 C10.2964727,1.63648333 10.7018364,1.92698333 10.6392,2.30965 L10.3543818,4.05731667 C10.3130182,4.31631667 10.4914727,4.56015 10.7538364,4.60098333 L12.5265636,4.87281667 C12.9142,4.93348333 13.0690182,5.40365 12.7901091,5.67665 L11.5184727,6.92615 C11.3305636,7.11048333 11.3305636,7.41148333 11.5184727,7.59698333 L12.7901091,8.84531667 C13.0690182,9.11948333 12.9142,9.58848333 12.5265636,9.64915 L10.7538364,9.92215 C10.4914727,9.96181667 10.3130182,10.20565 10.3543818,10.46465 L10.6392,12.2123167 C10.7018364,12.59615 10.2964727,12.88665 9.94665455,12.7093167 L8.35001818,11.9019833 C8.11365455,11.7818167 7.82410909,11.87515 7.70474545,12.10965 L6.89401818,13.68815 C6.71674545,14.03465 6.21565455,14.03465 6.03838182,13.68815 L5.22765455,12.10965 C5.10710909,11.87515 4.81756364,11.7818167 4.5812,11.9019833 L2.98456364,12.7093167 C2.63474545,12.88665 2.23056364,12.59615 2.29201818,12.2123167 L2.57801818,10.46465 C2.62056364,10.20565 2.43974545,9.96181667 2.17856364,9.92215 L0.405836364,9.64915 C0.0182,9.58848333 -0.136618182,9.11948333 0.141109091,8.84531667 L1.41274545,7.59698333 C1.60065455,7.41148333 1.60065455,7.11048333 1.41274545,6.92615 L0.141109091,5.67665 C-0.136618182,5.40365 0.0182,4.93348333 0.405836364,4.87281667 L2.17856364,4.60098333 C2.43974545,4.56015 2.62056364,4.31631667 2.57801818,4.05731667 L2.29201818,2.30965 C2.23056364,1.92698333 2.63474545,1.63648333 2.98456364,1.81265 L4.5812,2.62115 C4.81756364,2.74015 5.10710909,2.64798333 5.22765455,2.41348333 L6.03838182,0.833816667 C6.21565455,0.488483333 6.71674545,0.488483333 6.89401818,0.833816667" id="Fill-1" fill="#86828E" mask="url(#mask-2)"></path>
                    </g>
                    <path d="M9.52185474,16.4297181 L7.98620575,15.6458333 L7.20558418,17.1788665 C7.03456872,17.5146517 6.68788433,17.7253859 6.3109523,17.7253859 C5.93285691,17.7253859 5.58733588,17.5146517 5.41632043,17.1777087 L4.63686222,15.6458333 L3.09888649,16.4297181 C3.06747549,16.4459285 3.03257437,16.4517179 3,16.4644545 L3,25.0941346 C3,25.5897073 3.60495263,25.8328621 3.95047366,25.476235 L6.20159548,23.1570013 C6.42496261,22.927741 6.79491441,22.9346883 7.01013794,23.169738 L9.03672927,25.3986571 C9.37643344,25.7714944 10,25.5318133 10,25.0292933 L10,16.5327695 C9.83712814,16.5362431 9.67192953,16.5061382 9.52185474,16.4297181" id="Fill-4" fill="#86828E"></path>
                </g>
            </g>
        </g>
    </g>
</svg>
