<?xml version="1.0" encoding="utf-8"?>
<!-- Generator: Adobe Illustrator 22.1.0, SVG Export Plug-In . SVG Version: 6.00 Build 0)  -->
<svg version="1.1" id="Layer_1" xmlns="http://www.w3.org/2000/svg" xmlns:xlink="http://www.w3.org/1999/xlink" x="0px" y="0px"
	 viewBox="0 0 44.9 44.7" style="enable-background:new 0 0 44.9 44.7;" xml:space="preserve">
<style type="text/css">
	.st0{fill:#86828E;}
</style>
<g id="Layer_2_1_">
</g>
<path class="st0" d="M4.3,12.2c1-1.1,1.9-2.1,2.9-3.1c0.1-0.1,0.4-0.4,0.6-0.7c0.6-0.6,1.2-1.3,1.7-1.8l2.3-2.2c1-0.9,2-1.7,3-2.4
	l0.7-0.5C17,0.6,18.8,1,19.8,2.4c0,0.1,0.2,0.3,0.2,0.4C20,2.9,20.1,3,20.1,3.2c0.2,0.8,0,1.6,0,2.3c0,1,0,2,0,2.9h6.6
	c9.5,0,17.1,7.7,17.1,17.1s-7.7,17.1-17.1,17.1h-6.4c-3,0-5.5-2.5-5.5-5.5s2.5-5.5,5.5-5.5h6.4c3.4,0,6.1-2.8,6.1-6.1
	s-2.8-6.1-6.1-6.1h-6.4c0,1.6,0,3.1,0,4.7c-0.1,0.7-0.1,1.5-0.5,2c-0.9,1.4-2.7,1.8-4.1,0.8l-0.7-0.5c-1.1-0.8-2-1.6-2.9-2.3
	l-2.5-2.4c-0.4-0.4-1-1-1.6-1.7c-0.3-0.3-0.5-0.5-0.6-0.7c-1.2-1.1-2.1-2.3-3.4-3.7C3.3,15,3.2,13.4,4.3,12.2z"/>
</svg>
